<?xml version="1.0" encoding="utf-8"?>
<!-- Generator: Adobe Illustrator 15.0.2, SVG Export Plug-In  -->
<!DOCTYPE svg PUBLIC "-//W3C//DTD SVG 1.1//EN" "http://www.w3.org/Graphics/SVG/1.1/DTD/svg11.dtd" [
	<!ENTITY ns_flows "http://ns.adobe.com/Flows/1.0/">
]>
<svg version="1.1"
	 xmlns="http://www.w3.org/2000/svg" xmlns:xlink="http://www.w3.org/1999/xlink" xmlns:a="http://ns.adobe.com/AdobeSVGViewerExtensions/3.0/"
	 x="0px" y="0px" width="68px" height="78px" viewBox="0 0 68 78" overflow="visible" enable-background="new 0 0 68 78"
	 xml:space="preserve">
<defs>
</defs>
<polygon points="34.001,0 0,19.5 0,58.5 34.001,78 68,58.5 68,19.5 "/>
<path fill="#FFFFFF" d="M19.711,30.925c-0.303,0.069-0.582,0.209-0.769,0.465c-0.349,0.419-0.535,1.094-0.535,2.071v3.327h2.56v1.42
	h-2.56v7.097h1.932v1.396h-5.143v-1.396h1.605v-7.097h-1.769v-1.42h1.769v-2.955c0-1.605,0.279-2.676,1.047-3.444
	c0.582-0.558,1.28-0.907,2.257-0.907c1.07,0,1.815,0.512,1.815,1.326c0,0.652-0.442,1.094-1.001,1.094
	C20.27,31.901,19.896,31.482,19.711,30.925z"/>
<path fill="#FFFFFF" d="M22.271,41.745c0-2.793,2.024-5.143,5.097-5.143c3.07,0,5.096,2.326,5.096,5.143
	c0,2.815-2.025,5.143-5.096,5.143C24.271,46.888,22.271,44.584,22.271,41.745z M30.787,41.745c0-2.188-1.396-3.747-3.42-3.747
	c-2.025,0-3.422,1.56-3.422,3.747c0,2.21,1.396,3.746,3.422,3.746C29.391,45.491,30.787,43.955,30.787,41.745z"/>
<path fill="#FFFFFF" d="M37.559,38.627c0.931-1.094,2.304-2.024,3.723-2.024c1.28,0,2.141,0.488,2.63,1.279
	c0.325,0.559,0.489,1.257,0.489,2.071v5.352h1.582v1.396h-4.747v-1.396h1.56v-5.026c0-0.535-0.07-0.977-0.257-1.326
	c-0.279-0.581-0.837-0.86-1.651-0.86c-1.234,0-2.374,0.768-3.258,1.745v5.468h1.559v1.396H34.44v-1.396h1.583v-7.097H34.44v-1.42
	h3.118V38.627z"/>
<path fill="#FFFFFF" d="M49.055,45.724c-0.188-0.372-0.256-0.838-0.256-1.373v-6.143h-1.84v-1.42h1.84v-2.396l1.582-0.628v3.024
	h3.047v1.42h-3.047v5.91c0,0.326,0.047,0.559,0.162,0.768c0.186,0.35,0.559,0.513,1.164,0.513c0.582,0,1.303-0.279,1.861-0.605
	l-0.209,1.536c-0.512,0.279-1.211,0.559-2.117,0.559C50.193,46.888,49.449,46.492,49.055,45.724z"/>
</svg>
