<?xml version="1.0" encoding="utf-8"?>
<!-- Generator: Adobe Illustrator 15.0.2, SVG Export Plug-In  -->
<!DOCTYPE svg PUBLIC "-//W3C//DTD SVG 1.1//EN" "http://www.w3.org/Graphics/SVG/1.1/DTD/svg11.dtd" [
	<!ENTITY ns_flows "http://ns.adobe.com/Flows/1.0/">
]>
<svg version="1.1"
	 xmlns="http://www.w3.org/2000/svg" xmlns:xlink="http://www.w3.org/1999/xlink" xmlns:a="http://ns.adobe.com/AdobeSVGViewerExtensions/3.0/"
	 x="0px" y="0px" width="68px" height="78px" viewBox="0 0 68 78" overflow="visible" enable-background="new 0 0 68 78"
	 xml:space="preserve">
<defs>
</defs>
<polygon points="34.001,0 0,19.5 0,58.5 34.001,78 68,58.5 68,19.5 "/>
<path fill="#FFFFFF" d="M44.143,34.91c-0.276,0-0.829,0-1.161-0.111c1.493,0.663,3.814,2.487,3.814,6.246
	c0,4.919-3.98,12.381-15.697,12.381c-7.572,0-13.044-3.979-13.044-9.175c0-3.261,2.542-5.693,4.863-6.356
	c-1.713-0.995-3.481-2.432-3.481-5.14c0-2.874,2.874-5.693,6.688-5.693c3.869,0,6.356,2.211,7.13,5.306l-0.939,0.332
	c-1.382-2.045-2.432-2.875-4.588-2.875c-2.376,0-4.146,1.659-4.146,4.256c0,1.161,0.222,2.376,0.719,3.372
	c1.105-0.442,2.211-0.94,3.648-0.94c1.769,0,2.763,0.94,2.763,1.935c0,0.884-0.662,1.879-1.989,1.879
	c-1.935,0-3.371-1.105-4.588-1.769c-0.884,0.387-2.1,1.547-2.1,3.758c0,3.979,3.924,7.296,11.606,7.296
	c7.904,0,11.22-4.146,11.22-8.733c0-4.532-2.652-5.859-5.582-5.859c-2.155,0-4.366,1.382-4.366,3.427
	c0,2.874,1.492,3.593,3.095,3.593c0.719,0,1.051-0.166,1.438-0.387c-1.05-0.442-2.045-0.939-2.045-2.21
	c0-1.603,1.271-2.101,1.99-2.101c1.271,0,2.818,0.553,2.818,2.598c0,1.548-1.326,3.427-3.703,3.427
	c-2.433,0-5.307-2.101-5.307-5.362c0-4.366,4.256-6.19,7.186-6.19c0.995,0,3.261,0.166,4.146,0.166c2.598,0,3.647-2.045,3.647-3.316
	c0-2.376-1.05-3.04-2.652-3.04c-0.773,0-1.105,0.332-1.271,0.718c0.553,0.166,1.714,0.553,1.714,1.713
	c0,1.382-0.995,1.879-2.045,1.879c-1.106,0-2.433-0.663-2.433-2.487c0-1.327,1.438-2.874,3.869-2.874s4.587,1.713,4.587,4.422
	C49.945,31.87,47.79,34.91,44.143,34.91z"/>
</svg>
